<svg width="128" height="117" viewBox="0 0 128 117" fill="none" xmlns="http://www.w3.org/2000/svg">
<path d="M124.636 4.19274C123.752 3.34808 122.698 2.6878 121.513 2.24354L119.776 1.54069L5.39253 -42.7432C3.68175 -43.4147 1.88099 -43.5149 0.222779 -43.1481L22.7049 -23.882L105.12 8.00236C103.356 12.5999 104.758 17.6247 108.309 20.6682C109.254 21.4781 110.351 22.1699 111.591 22.6366L102.956 44.8891L112.063 52.6934L126.247 16.175L126.913 14.4174C127.831 12.0757 127.767 9.53844 126.733 7.2119C126.23 6.06091 125.52 5.03739 124.636 4.19274ZM91.3464 25.5412C90.6396 24.8572 89.7816 24.3035 88.8024 23.9237C85.8801 22.8101 82.6791 23.6392 80.6472 25.7717L92.0421 35.5365C92.5092 34.9932 92.8682 34.4042 93.1347 33.689C94.2572 30.7772 93.4667 27.5934 91.3464 25.5412ZM61.6766 0.329157C60.216 -0.922582 58.508 -1.94043 56.6581 -2.68146C53.3756 -3.95477 49.8789 -4.17093 46.5912 -3.41268L68.2454 15.1439C68.2572 9.34351 65.8296 3.88804 61.6766 0.329157ZM2.21288 -26.5438C-1.6926 -29.8906 -7.74075 -29.4299 -11.0926 -25.5302L-50.4216 20.2272C-53.7734 24.1269 -53.3119 30.166 -49.4065 33.5128L45.1092 114.508C49.0147 117.855 55.0628 117.394 58.4146 113.494L97.7436 67.737C101.095 63.8373 100.634 57.7982 96.7285 54.4514L2.21288 -26.5438ZM4.86308 -9.37388L79.33 54.4405C75.2569 59.1792 75.8023 66.3163 80.5481 70.3832L58.4255 96.1218C53.6797 92.0548 46.532 92.5993 42.459 97.3381L-32.0079 33.5237C-27.9349 28.785 -28.4802 21.6479 -33.226 17.581L-11.1034 -8.15756C-6.35761 -4.09062 0.790067 -4.63513 4.86308 -9.37388ZM37.1804 28.253C29.2726 21.4764 16.8081 23.0219 9.34048 31.7101C1.87288 40.3983 2.23388 52.9346 10.1417 59.7112C18.0495 66.4878 30.514 64.9423 37.9816 56.2541C45.4492 47.5659 45.0882 35.0296 37.1804 28.253ZM29.8062 36.8325C32.9109 39.4931 32.7199 45.0158 29.3893 48.8909C26.0586 52.766 20.6206 53.7923 17.5159 51.1317C14.4112 48.4711 14.6021 42.9484 17.9328 39.0733C21.2635 35.1982 26.7015 34.1719 29.8062 36.8325ZM-1.496 12.4912C-3.01522 11.1893 -4.99016 10.5434 -6.98636 10.6954C-8.98257 10.8475 -10.8365 11.7852 -12.1403 13.3021C-13.4442 14.8191 -14.0911 16.7911 -13.9388 18.7843C-13.7865 20.7775 -12.8475 22.6287 -11.3283 23.9306C-9.80903 25.2325 -7.8341 25.8785 -5.83789 25.7264C-3.84169 25.5743 -1.98774 24.6367 -0.683904 23.1197C0.619937 21.6028 1.26686 19.6308 1.11457 17.6375C0.962267 15.6443 0.0232219 13.7931 -1.496 12.4912ZM58.6503 64.0336C57.1311 62.7317 55.1562 62.0858 53.16 62.2378C51.1637 62.3899 49.3098 63.3275 48.006 64.8445C46.7021 66.3614 46.0552 68.3334 46.2075 70.3267C46.3598 72.3199 47.2988 74.1711 48.8181 75.473C50.3373 76.7749 52.3122 77.4208 54.3084 77.2688C56.3046 77.1167 58.1586 76.179 59.4624 74.6621C60.7663 73.1451 61.4132 71.1731 61.2609 69.1799C61.1086 67.1867 60.1695 65.3355 58.6503 64.0336Z" fill="#80C4FF"/>
</svg>
