<svg width="108" height="112" viewBox="0 0 108 112" fill="none" xmlns="http://www.w3.org/2000/svg" >
<path d="M24.457 15.6202C0.242579 31.6553 -6.43718 64.3318 9.57208 88.4352C25.5813 112.539 58.3272 119.107 82.5416 103.072C85.1901 101.318 87.5908 99.3344 89.813 97.2154C92.6234 96.0013 95.3879 94.5652 98.0454 92.8054C100.695 91.0508 103.094 89.0688 105.317 86.9487C108.127 85.7346 110.892 84.2985 113.549 82.5387C137.763 66.5042 144.443 33.8264 128.434 9.72372C112.425 -14.3789 79.6781 -20.9477 55.4645 -4.9132C52.8071 -3.15343 50.4066 -1.16925 48.1931 0.943566C45.3722 2.16351 42.6104 3.5989 39.9608 5.35352C37.3033 7.1133 34.9029 9.09747 32.6894 11.2103C29.8699 12.4299 27.1055 13.8664 24.457 15.6202ZM29.5821 23.3366C31.8342 21.8453 34.1785 20.6221 36.5736 19.5965C36.9169 19.4901 37.2469 19.3444 37.5569 19.1623C56.2474 11.6982 78.1286 18.0068 89.6747 35.3905C101.222 52.776 98.5267 75.3595 84.3652 89.6477C84.0727 89.8634 83.8065 90.1125 83.572 90.3899C81.6974 92.1893 79.6634 93.8679 77.4165 95.3558C57.3915 108.617 30.5634 103.235 17.3239 83.3019C4.0845 63.3686 9.55711 36.5974 29.5821 23.3366ZM58.744 7.11389C76.0218 2.84563 94.7848 9.47523 105.178 25.1238C115.572 40.7724 114.389 60.6106 103.729 74.8429C108.269 60.2802 106.487 43.8988 97.4266 30.2572C88.366 16.6155 73.9458 8.60334 58.744 7.11389ZM74.2478 -3.15284C91.5256 -7.42109 110.289 -0.791494 120.682 14.8571C131.076 30.5056 129.892 50.3439 119.233 64.5762C123.773 50.0133 121.991 33.6316 112.93 19.9904C103.87 6.34929 89.4497 -1.66329 74.2478 -3.15284ZM35.9741 45.0277C34.1111 46.2614 33.385 48.6445 34.2526 50.6957L39.755 63.7173C40.293 64.9868 41.369 65.9496 42.6914 66.3442C44.0112 66.7405 45.4492 66.5288 46.6016 65.7656L54.9995 60.2045C57.493 58.5532 60.8625 59.2291 62.5111 61.7112C64.9814 65.4305 62.692 68.0724 60.3328 69.6347C56.1597 72.3981 52.7448 72.2984 52.4948 72.2862C49.9637 72.0995 47.7397 73.9761 47.5135 76.5035C47.2803 79.054 49.1659 81.3028 51.7227 81.528C52.3943 81.5869 58.4864 81.9676 65.4579 77.351C73.0651 72.3135 75.0388 63.7737 70.2579 56.5812C65.7837 49.8448 56.6367 48.0101 49.8693 52.4915L46.1499 54.9546L44.314 50.6151L54.4177 43.9244C56.5598 42.5059 57.1473 39.6318 55.7311 37.4995C54.3149 35.3672 51.4347 34.7895 49.2926 36.208L35.9741 45.0277Z" fill="#277fcc"/>
</svg>
